<?xml version="1.0" encoding="UTF-8"?>
<!DOCTYPE svg PUBLIC "-//W3C//DTD SVG 1.1//EN" "http://www.w3.org/Graphics/SVG/1.1/DTD/svg11.dtd">
<svg xmlns="http://www.w3.org/2000/svg" version="1.1" width="1280px" height="1156px" style="shape-rendering:geometricPrecision; text-rendering:geometricPrecision; image-rendering:optimizeQuality; fill-rule:evenodd; clip-rule:evenodd" xmlns:xlink="http://www.w3.org/1999/xlink">
<g><path style="opacity:1" fill="#1c2024" d="M 582.5,-0.5 C 601.833,-0.5 621.167,-0.5 640.5,-0.5C 640.5,0.166667 640.833,0.5 641.5,0.5C 647.288,1.80988 653.288,2.47655 659.5,2.5C 659.833,2.5 660.167,2.5 660.5,2.5C 664.591,3.89548 668.924,4.56214 673.5,4.5C 697.391,7.55482 720.391,13.5548 742.5,22.5C 741.044,25.4311 741.877,26.0978 745,24.5C 745.308,25.3081 745.808,25.9747 746.5,26.5C 747.736,25.7542 749.07,25.4208 750.5,25.5C 765.237,30.2971 779.237,36.6305 792.5,44.5C 795.582,50.3048 800.248,52.9715 806.5,52.5C 815.35,57.0879 823.684,62.4212 831.5,68.5C 831.297,70.3904 831.963,71.8904 833.5,73C 836.5,74.6667 839.5,76.3333 842.5,78C 844.052,81.382 847.052,83.7153 851.5,85C 850.167,85.6667 850.167,86.3333 851.5,87C 853.345,88.128 855.345,88.628 857.5,88.5C 885.145,110.468 908.479,136.134 927.5,165.5C 927.586,166.496 927.252,167.329 926.5,168C 929.134,170.97 931.467,173.636 933.5,176C 933.167,176.333 932.833,176.667 932.5,177C 934.792,180.416 936.959,183.916 939,187.5C 939.667,186.167 940.333,186.167 941,187.5C 940.579,190.975 942.079,193.642 945.5,195.5C 944.466,198.057 945.466,199.391 948.5,199.5C 947.902,201.357 947.902,203.023 948.5,204.5C 949.766,205.362 951.099,206.029 952.5,206.5C 957.593,215.428 961.926,224.761 965.5,234.5C 963.669,237.67 964.336,240.17 967.5,242C 966.185,243.395 966.519,244.395 968.5,245C 967.549,245.718 967.383,246.551 968,247.5C 968.667,248.833 969.333,248.833 970,247.5C 971.398,249.814 971.565,252.147 970.5,254.5C 971.189,256.522 972.522,257.856 974.5,258.5C 977.272,264.488 979.272,270.822 980.5,277.5C 980.528,280.916 981.528,283.916 983.5,286.5C 983.5,287.167 983.5,287.833 983.5,288.5C 983.41,291.152 984.076,293.485 985.5,295.5C 988.086,303.87 989.753,312.537 990.5,321.5C 990.116,325.489 990.783,329.155 992.5,332.5C 995.408,358.739 996.241,385.072 995,411.5C 994.659,418.609 993.826,425.609 992.5,432.5C 991.105,436.591 990.438,440.924 990.5,445.5C 983.788,490.387 969.121,532.387 946.5,571.5C 945.178,571.33 944.011,571.663 943,572.5C 938.858,579.356 935.024,585.856 931.5,592C 932.252,592.671 932.586,593.504 932.5,594.5C 930.646,598.221 928.313,601.554 925.5,604.5C 924.12,603.294 922.953,603.627 922,605.5C 912.672,618.642 902.505,631.142 891.5,643C 892.252,643.671 892.586,644.504 892.5,645.5C 886.5,652.167 880.167,658.5 873.5,664.5C 869.425,663.901 867.425,665.901 867.5,670.5C 864.455,673.547 861.122,676.213 857.5,678.5C 856.504,678.586 855.671,678.252 855,677.5C 847.105,684.196 838.938,690.529 830.5,696.5C 829.571,697.689 829.238,699.022 829.5,700.5C 825.306,703.429 820.973,706.095 816.5,708.5C 815.093,705.961 813.927,706.294 813,709.5C 811.129,708.332 809.629,708.832 808.5,711C 808.833,711.333 809.167,711.667 809.5,712C 807.05,710.874 805.05,711.541 803.5,714C 803.833,714.333 804.167,714.667 804.5,715C 800.359,714.911 797.026,716.744 794.5,720.5C 792.786,719.391 792.119,720.058 792.5,722.5C 775.043,732.393 756.71,740.393 737.5,746.5C 731.523,747.165 725.523,747.498 719.5,747.5C 715.637,746.306 712.637,743.973 710.5,740.5C 710.421,739.07 710.754,737.736 711.5,736.5C 710.675,735.614 709.675,735.281 708.5,735.5C 708.832,694.33 708.499,653.33 707.5,612.5C 706.009,592.5 699.342,574.5 687.5,558.5C 686.829,557.153 686.829,555.986 687.5,555C 690.329,554.952 692.663,553.952 694.5,552C 700.158,550.497 705.825,550.331 711.5,551.5C 711.5,550.5 711.5,549.5 711.5,548.5C 711.833,548.5 712.167,548.5 712.5,548.5C 717.689,549.089 722.355,548.089 726.5,545.5C 729.152,545.59 731.485,544.924 733.5,543.5C 734.568,542.566 735.901,542.232 737.5,542.5C 740.716,542.655 743.383,541.655 745.5,539.5C 778.911,529.393 805.911,510.393 826.5,482.5C 827.906,482.027 828.573,481.027 828.5,479.5C 832.097,479.37 833.597,477.37 833,473.5C 833.667,474.833 834.333,474.833 835,473.5C 837.152,470.967 837.652,468.3 836.5,465.5C 854.774,422.882 860.607,378.548 854,332.5C 852.354,325.097 850.52,317.764 848.5,310.5C 849.984,309.527 850.484,308.193 850,306.5C 849.299,304.238 848.132,303.238 846.5,303.5C 847.789,300.849 847.289,298.516 845,296.5C 844.722,297.416 844.222,298.082 843.5,298.5C 837.09,286.014 829.423,274.348 820.5,263.5C 819.548,261.888 819.214,260.388 819.5,259C 820.308,258.692 820.975,258.192 821.5,257.5C 820.787,254.904 820.787,252.237 821.5,249.5C 827.948,218.772 825.448,188.772 814,159.5C 802.376,157.791 790.876,158.624 779.5,162C 770.771,165.075 762.105,168.242 753.5,171.5C 749.458,170.618 745.791,171.618 742.5,174.5C 741.614,175.325 741.281,176.325 741.5,177.5C 730.24,184.241 719.074,191.241 708,198.5C 706.378,197.901 704.878,197.234 703.5,196.5C 701.485,195.076 699.152,194.41 696.5,194.5C 691.344,194.135 686.344,193.135 681.5,191.5C 681.414,190.504 681.748,189.671 682.5,189C 681.667,188.833 680.833,188.667 680,188.5C 674.874,189.135 669.707,189.135 664.5,188.5C 614.59,181.783 565.423,185.117 517,198.5C 514.012,196.601 511.179,194.601 508.5,192.5C 507.952,191.312 507.619,190.145 507.5,189C 503.25,186.626 499.084,184.126 495,181.5C 494.282,182.451 493.449,182.617 492.5,182C 491.789,180.745 490.956,179.579 490,178.5C 488.989,179.337 487.822,179.67 486.5,179.5C 469.108,170.202 450.774,163.368 431.5,159C 424.833,158.333 418.167,158.333 411.5,159C 407.004,169.485 403.671,180.319 401.5,191.5C 399.85,197.25 399.184,203.25 399.5,209.5C 399.586,224.358 401.252,239.025 404.5,253.5C 404.261,255.467 404.594,257.301 405.5,259C 402.593,260.623 401.593,262.79 402.5,265.5C 399.397,270.052 396.064,274.386 392.5,278.5C 390.433,277.407 389.766,277.907 390.5,280C 388.047,281.88 386.047,284.213 384.5,287C 384.833,287.333 385.167,287.667 385.5,288C 382.331,289.342 381.665,291.508 383.5,294.5C 378.506,305.482 374.506,316.816 371.5,328.5C 369.989,331.544 369.322,334.878 369.5,338.5C 367.026,368.413 368.693,398.08 374.5,427.5C 374.41,430.152 375.076,432.485 376.5,434.5C 386.512,471.55 407.512,500.55 439.5,521.5C 440.237,523.305 441.237,524.971 442.5,526.5C 443.451,525.674 444.451,525.508 445.5,526C 444.167,526.667 444.167,527.333 445.5,528C 448.351,529.223 451.018,530.723 453.5,532.5C 454.182,531.757 454.849,531.091 455.5,530.5C 479.929,540.754 505.263,547.754 531.5,551.5C 534.647,552.046 537.647,553.046 540.5,554.5C 538.471,556.858 536.471,559.192 534.5,561.5C 533.504,561.586 532.671,561.252 532,560.5C 531.326,562.517 530.159,564.183 528.5,565.5C 528.709,566.086 529.043,566.586 529.5,567C 525.558,568.378 524.558,570.878 526.5,574.5C 522.801,584.465 519.801,594.632 517.5,605C 493.652,615.951 469.319,617.285 444.5,609C 432.958,603.805 423.125,596.305 415,586.5C 409,577.833 403,569.167 397,560.5C 385.78,546.28 371.28,537.446 353.5,534C 346.679,533.124 340.012,533.791 333.5,536C 329.605,537.952 328.771,540.786 331,544.5C 337.756,551.97 345.589,558.137 354.5,563C 364.881,574.047 373.714,586.214 381,599.5C 385.655,610.995 391.155,621.995 397.5,632.5C 398.846,638.681 402.513,642.848 408.5,645C 408.167,645.333 407.833,645.667 407.5,646C 412.348,648.856 417.181,651.69 422,654.5C 422.671,653.748 423.504,653.414 424.5,653.5C 431.111,655.704 437.778,657.704 444.5,659.5C 448.21,661.136 452.21,661.802 456.5,661.5C 457.5,661.5 458.5,661.5 459.5,661.5C 464.656,662.166 469.989,662.499 475.5,662.5C 483.722,662.668 491.722,662.001 499.5,660.5C 503.817,660.917 507.817,660.25 511.5,658.5C 512.167,658.5 512.833,658.5 513.5,658.5C 515.491,683.812 516.157,709.478 515.5,735.5C 514.243,740.602 511.243,744.435 506.5,747C 500.92,748.517 495.253,748.851 489.5,748C 466.984,740.904 445.651,731.404 425.5,719.5C 425.67,718.178 425.337,717.011 424.5,716C 415.308,711.033 406.808,705.866 399,700.5C 398.329,701.252 397.496,701.586 396.5,701.5C 392.608,699.938 389.275,697.605 386.5,694.5C 384.889,690.393 381.889,687.893 377.5,687C 374.722,681.827 370.722,678.994 365.5,678.5C 347.5,663.833 331.167,647.5 316.5,629.5C 316.414,628.504 316.748,627.671 317.5,627C 311.617,620.118 306.117,612.952 301,605.5C 300.014,604.829 298.847,604.829 297.5,605.5C 291.988,597.808 286.988,589.808 282.5,581.5C 281.772,575.348 279.272,569.681 275,564.5C 274.23,565.598 273.397,565.598 272.5,564.5C 248.432,520.585 234.099,473.585 229.5,423.5C 229.587,415.291 228.921,407.291 227.5,399.5C 225.739,364.197 229.072,329.53 237.5,295.5C 238.924,293.485 239.59,291.152 239.5,288.5C 239.294,285.505 239.96,282.838 241.5,280.5C 242.924,278.485 243.59,276.152 243.5,273.5C 244.414,268.147 246.081,263.147 248.5,258.5C 249.735,256.745 251.235,255.078 253,253.5C 253.684,252.216 253.517,251.049 252.5,250C 253.308,249.692 253.975,249.192 254.5,248.5C 253.754,247.264 253.421,245.93 253.5,244.5C 257.767,231.971 263.101,219.971 269.5,208.5C 273.52,207.694 274.853,205.027 273.5,200.5C 319.417,117.755 386.417,58.9216 474.5,24C 484.564,19.9227 494.898,16.7561 505.5,14.5C 508.916,14.4725 511.916,13.4725 514.5,11.5C 530.846,6.77559 547.512,3.77559 564.5,2.5C 569.731,2.55565 574.731,1.88899 579.5,0.5C 580.791,0.737305 581.791,0.403972 582.5,-0.5 Z"/></g>
<g><path style="opacity:0.125" fill="#a6a7a8" d="M 641.5,0.5 C 647.726,0.387668 653.726,1.05434 659.5,2.5C 653.288,2.47655 647.288,1.80988 641.5,0.5 Z"/></g>
<g><path style="opacity:1" fill="#7b7d80" d="M 579.5,0.5 C 574.731,1.88899 569.731,2.55565 564.5,2.5C 569.269,1.11101 574.269,0.444348 579.5,0.5 Z"/></g>
<g><path style="opacity:0.392" fill="#8e8f91" d="M 660.5,2.5 C 665.076,2.43786 669.409,3.10452 673.5,4.5C 668.924,4.56214 664.591,3.89548 660.5,2.5 Z"/></g>
<g><path style="opacity:1" fill="#65676a" d="M 514.5,11.5 C 511.916,13.4725 508.916,14.4725 505.5,14.5C 508.215,12.9281 511.215,11.9281 514.5,11.5 Z"/></g>
<g><path style="opacity:1" fill="#4a4d50" d="M 742.5,22.5 C 745.542,22.7329 748.208,23.7329 750.5,25.5C 749.07,25.4208 747.736,25.7542 746.5,26.5C 745.808,25.9747 745.308,25.3081 745,24.5C 741.877,26.0978 741.044,25.4311 742.5,22.5 Z"/></g>
<g><path style="opacity:1" fill="#424649" d="M 792.5,44.5 C 797.5,46.6643 802.167,49.331 806.5,52.5C 800.248,52.9715 795.582,50.3048 792.5,44.5 Z"/></g>
<g><path style="opacity:1" fill="#3c3f43" d="M 831.5,68.5 C 840.566,74.6937 849.233,81.3603 857.5,88.5C 855.345,88.628 853.345,88.128 851.5,87C 850.167,86.3333 850.167,85.6667 851.5,85C 847.052,83.7153 844.052,81.382 842.5,78C 839.5,76.3333 836.5,74.6667 833.5,73C 831.963,71.8904 831.297,70.3904 831.5,68.5 Z"/></g>
<g><path style="opacity:1" fill="#3d4044" d="M 753.5,171.5 C 749.818,174.008 745.818,176.008 741.5,177.5C 741.281,176.325 741.614,175.325 742.5,174.5C 745.791,171.618 749.458,170.618 753.5,171.5 Z"/></g>
<g><path style="opacity:1" fill="#383c3f" d="M 927.5,165.5 C 935.499,176.155 942.499,187.489 948.5,199.5C 945.466,199.391 944.466,198.057 945.5,195.5C 942.079,193.642 940.579,190.975 941,187.5C 940.333,186.167 939.667,186.167 939,187.5C 936.959,183.916 934.792,180.416 932.5,177C 932.833,176.667 933.167,176.333 933.5,176C 931.467,173.636 929.134,170.97 926.5,168C 927.252,167.329 927.586,166.496 927.5,165.5 Z"/></g>
<g><path style="opacity:1" fill="#3b3f42" d="M 508.5,192.5 C 501.159,188.163 493.825,183.83 486.5,179.5C 487.822,179.67 488.989,179.337 490,178.5C 490.956,179.579 491.789,180.745 492.5,182C 493.449,182.617 494.282,182.451 495,181.5C 499.084,184.126 503.25,186.626 507.5,189C 507.619,190.145 507.952,191.312 508.5,192.5 Z"/></g>
<g><path style="opacity:1" fill="#4b4e51" d="M 664.5,188.5 C 669.707,189.135 674.874,189.135 680,188.5C 680.833,188.667 681.667,188.833 682.5,189C 681.748,189.671 681.414,190.504 681.5,191.5C 675.614,191.02 669.948,190.02 664.5,188.5 Z"/></g>
<g><path style="opacity:0.545" fill="#7f8183" d="M 696.5,194.5 C 699.152,194.41 701.485,195.076 703.5,196.5C 700.848,196.59 698.515,195.924 696.5,194.5 Z"/></g>
<g><path style="opacity:1" fill="#4c4f52" d="M 273.5,200.5 C 274.853,205.027 273.52,207.694 269.5,208.5C 270.326,205.515 271.659,202.849 273.5,200.5 Z"/></g>
<g><path style="opacity:1" fill="#4b4e51" d="M 948.5,199.5 C 950.588,201.336 951.921,203.669 952.5,206.5C 951.099,206.029 949.766,205.362 948.5,204.5C 947.902,203.023 947.902,201.357 948.5,199.5 Z"/></g>
<g><path style="opacity:0.004" fill="#b7b8b9" d="M 401.5,191.5 C 401.243,197.688 400.577,203.688 399.5,209.5C 399.184,203.25 399.85,197.25 401.5,191.5 Z"/></g>
<g><path style="opacity:1" fill="#44474a" d="M 965.5,234.5 C 969.586,242.02 972.586,250.02 974.5,258.5C 972.522,257.856 971.189,256.522 970.5,254.5C 971.565,252.147 971.398,249.814 970,247.5C 969.333,248.833 968.667,248.833 968,247.5C 967.383,246.551 967.549,245.718 968.5,245C 966.519,244.395 966.185,243.395 967.5,242C 964.336,240.17 963.669,237.67 965.5,234.5 Z"/></g>
<g><path style="opacity:1" fill="#3e4145" d="M 253.5,244.5 C 253.421,245.93 253.754,247.264 254.5,248.5C 253.975,249.192 253.308,249.692 252.5,250C 253.517,251.049 253.684,252.216 253,253.5C 251.235,255.078 249.735,256.745 248.5,258.5C 249.393,253.483 251.06,248.817 253.5,244.5 Z"/></g>
<g><path style="opacity:1" fill="#535659" d="M 821.5,249.5 C 820.787,252.237 820.787,254.904 821.5,257.5C 820.975,258.192 820.308,258.692 819.5,259C 819.214,260.388 819.548,261.888 820.5,263.5C 819.035,262.594 818.035,261.261 817.5,259.5C 818.664,255.987 819.998,252.654 821.5,249.5 Z"/></g>
<g><path style="opacity:1" fill="#505356" d="M 404.5,253.5 C 408.834,258.211 408.167,262.211 402.5,265.5C 401.593,262.79 402.593,260.623 405.5,259C 404.594,257.301 404.261,255.467 404.5,253.5 Z"/></g>
<g><path style="opacity:1" fill="#717375" d="M 243.5,273.5 C 243.59,276.152 242.924,278.485 241.5,280.5C 241.41,277.848 242.076,275.515 243.5,273.5 Z"/></g>
<g><path style="opacity:1" fill="#7a7c7e" d="M 980.5,277.5 C 982.072,280.215 983.072,283.215 983.5,286.5C 981.528,283.916 980.528,280.916 980.5,277.5 Z"/></g>
<g><path style="opacity:1" fill="#414448" d="M 392.5,278.5 C 389.497,283.841 386.497,289.175 383.5,294.5C 381.665,291.508 382.331,289.342 385.5,288C 385.167,287.667 384.833,287.333 384.5,287C 386.047,284.213 388.047,281.88 390.5,280C 389.766,277.907 390.433,277.407 392.5,278.5 Z"/></g>
<g><path style="opacity:0.51" fill="#818384" d="M 239.5,288.5 C 239.59,291.152 238.924,293.485 237.5,295.5C 237.41,292.848 238.076,290.515 239.5,288.5 Z"/></g>
<g><path style="opacity:0.502" fill="#838587" d="M 983.5,288.5 C 984.924,290.515 985.59,292.848 985.5,295.5C 984.076,293.485 983.41,291.152 983.5,288.5 Z"/></g>
<g><path style="opacity:1" fill="#3c3f43" d="M 848.5,310.5 C 846.462,306.739 844.796,302.739 843.5,298.5C 844.222,298.082 844.722,297.416 845,296.5C 847.289,298.516 847.789,300.849 846.5,303.5C 848.132,303.238 849.299,304.238 850,306.5C 850.484,308.193 849.984,309.527 848.5,310.5 Z"/></g>
<g><path style="opacity:1" fill="#727577" d="M 990.5,321.5 C 991.687,324.946 992.354,328.613 992.5,332.5C 990.783,329.155 990.116,325.489 990.5,321.5 Z"/></g>
<g><path style="opacity:0.298" fill="#a0a2a3" d="M 371.5,328.5 C 371.451,332.078 370.785,335.411 369.5,338.5C 369.322,334.878 369.989,331.544 371.5,328.5 Z"/></g>
<g><path style="opacity:0.314" fill="#9d9ea0" d="M 227.5,399.5 C 228.921,407.291 229.587,415.291 229.5,423.5C 228.079,415.709 227.413,407.709 227.5,399.5 Z"/></g>
<g><path style="opacity:0.545" fill="#7e8082" d="M 374.5,427.5 C 375.924,429.515 376.59,431.848 376.5,434.5C 375.076,432.485 374.41,430.152 374.5,427.5 Z"/></g>
<g><path style="opacity:0.369" fill="#929395" d="M 992.5,432.5 C 992.562,437.076 991.895,441.409 990.5,445.5C 990.438,440.924 991.105,436.591 992.5,432.5 Z"/></g>
<g><path style="opacity:1" fill="#3e4245" d="M 836.5,465.5 C 837.652,468.3 837.152,470.967 835,473.5C 834.333,474.833 833.667,474.833 833,473.5C 833.597,477.37 832.097,479.37 828.5,479.5C 830.775,474.571 833.441,469.904 836.5,465.5 Z"/></g>
<g><path style="opacity:0.463" fill="#87898a" d="M 828.5,479.5 C 828.573,481.027 827.906,482.027 826.5,482.5C 826.427,480.973 827.094,479.973 828.5,479.5 Z"/></g>
<g><path style="opacity:1" fill="#3e4145" d="M 439.5,521.5 C 444.841,524.503 450.175,527.503 455.5,530.5C 454.849,531.091 454.182,531.757 453.5,532.5C 451.018,530.723 448.351,529.223 445.5,528C 444.167,527.333 444.167,526.667 445.5,526C 444.451,525.508 443.451,525.674 442.5,526.5C 441.237,524.971 440.237,523.305 439.5,521.5 Z"/></g>
<g><path style="opacity:1" fill="#66686b" d="M 745.5,539.5 C 743.383,541.655 740.716,542.655 737.5,542.5C 739.936,541.129 742.603,540.129 745.5,539.5 Z"/></g>
<g><path style="opacity:1" fill="#6d6f71" d="M 733.5,543.5 C 731.485,544.924 729.152,545.59 726.5,545.5C 728.515,544.076 730.848,543.41 733.5,543.5 Z"/></g>
<g><path style="opacity:1" fill="#515356" d="M 726.5,545.5 C 722.355,548.089 717.689,549.089 712.5,548.5C 716.889,546.754 721.556,545.754 726.5,545.5 Z"/></g>
<g><path style="opacity:0.016" fill="#a9aaac" d="M 531.5,551.5 C 535.394,551.11 539.06,551.777 542.5,553.5C 542.043,554.298 541.376,554.631 540.5,554.5C 537.647,553.046 534.647,552.046 531.5,551.5 Z"/></g>
<g><path style="opacity:1" fill="#3d4144" d="M 711.5,548.5 C 711.5,549.5 711.5,550.5 711.5,551.5C 705.825,550.331 700.158,550.497 694.5,552C 692.663,553.952 690.329,554.952 687.5,555C 686.829,555.986 686.829,557.153 687.5,558.5C 685.871,557.375 684.371,556.041 683,554.5C 682.409,553.517 682.743,552.85 684,552.5C 693.148,551.027 702.314,549.693 711.5,548.5 Z"/></g>
<g><path style="opacity:1" fill="#44484b" d="M 534.5,561.5 C 531.799,565.856 529.132,570.189 526.5,574.5C 524.558,570.878 525.558,568.378 529.5,567C 529.043,566.586 528.709,566.086 528.5,565.5C 530.159,564.183 531.326,562.517 532,560.5C 532.671,561.252 533.504,561.586 534.5,561.5 Z"/></g>
<g><path style="opacity:1" fill="#404447" d="M 272.5,564.5 C 273.397,565.598 274.23,565.598 275,564.5C 279.272,569.681 281.772,575.348 282.5,581.5C 278.414,576.335 275.08,570.668 272.5,564.5 Z"/></g>
<g><path style="opacity:1" fill="#3b3e42" d="M 946.5,571.5 C 942.583,579.675 937.917,587.341 932.5,594.5C 932.586,593.504 932.252,592.671 931.5,592C 935.024,585.856 938.858,579.356 943,572.5C 944.011,571.663 945.178,571.33 946.5,571.5 Z"/></g>
<g><path style="opacity:1" fill="#393d40" d="M 316.5,629.5 C 309.696,621.903 303.363,613.903 297.5,605.5C 298.847,604.829 300.014,604.829 301,605.5C 306.117,612.952 311.617,620.118 317.5,627C 316.748,627.671 316.414,628.504 316.5,629.5 Z"/></g>
<g><path style="opacity:1" fill="#3c4043" d="M 925.5,604.5 C 915.698,619.09 904.698,632.756 892.5,645.5C 892.586,644.504 892.252,643.671 891.5,643C 902.505,631.142 912.672,618.642 922,605.5C 922.953,603.627 924.12,603.294 925.5,604.5 Z"/></g>
<g><path style="opacity:1" fill="#3c3f43" d="M 397.5,632.5 C 405.045,641.38 414.045,648.38 424.5,653.5C 423.504,653.414 422.671,653.748 422,654.5C 417.181,651.69 412.348,648.856 407.5,646C 407.833,645.667 408.167,645.333 408.5,645C 402.513,642.848 398.846,638.681 397.5,632.5 Z"/></g>
<g><path style="opacity:1" fill="#737678" d="M 511.5,658.5 C 507.817,660.25 503.817,660.917 499.5,660.5C 503.316,659.518 507.316,658.851 511.5,658.5 Z"/></g>
<g><path style="opacity:0.341" fill="#a3a4a5" d="M 444.5,659.5 C 448.705,659.717 452.705,660.383 456.5,661.5C 452.21,661.802 448.21,661.136 444.5,659.5 Z"/></g>
<g><path style="opacity:1" fill="#8c8e8f" d="M 499.5,660.5 C 491.722,662.001 483.722,662.668 475.5,662.5C 469.989,662.499 464.656,662.166 459.5,661.5C 472.85,661.639 486.183,661.306 499.5,660.5 Z"/></g>
<g><path style="opacity:1" fill="#505456" d="M 873.5,664.5 C 871.833,666.833 869.833,668.833 867.5,670.5C 867.425,665.901 869.425,663.901 873.5,664.5 Z"/></g>
<g><path style="opacity:1" fill="#3b3f42" d="M 386.5,694.5 C 378.926,689.927 371.926,684.594 365.5,678.5C 370.722,678.994 374.722,681.827 377.5,687C 381.889,687.893 384.889,690.393 386.5,694.5 Z"/></g>
<g><path style="opacity:1" fill="#3c3f43" d="M 857.5,678.5 C 848.569,686.305 839.235,693.638 829.5,700.5C 829.238,699.022 829.571,697.689 830.5,696.5C 838.938,690.529 847.105,684.196 855,677.5C 855.671,678.252 856.504,678.586 857.5,678.5 Z"/></g>
<g><path style="opacity:0.533" fill="#6d6f71" d="M 513.5,658.5 C 514.209,657.596 515.209,657.263 516.5,657.5C 516.831,683.672 516.498,709.672 515.5,735.5C 516.157,709.478 515.491,683.812 513.5,658.5 Z"/></g>
<g><path style="opacity:1" fill="#434649" d="M 816.5,708.5 C 809.164,714.173 801.164,718.839 792.5,722.5C 792.119,720.058 792.786,719.391 794.5,720.5C 797.026,716.744 800.359,714.911 804.5,715C 804.167,714.667 803.833,714.333 803.5,714C 805.05,711.541 807.05,710.874 809.5,712C 809.167,711.667 808.833,711.333 808.5,711C 809.629,708.832 811.129,708.332 813,709.5C 813.927,706.294 815.093,705.961 816.5,708.5 Z"/></g>
<g><path style="opacity:1" fill="#383c3f" d="M 425.5,719.5 C 415.298,714.284 405.631,708.284 396.5,701.5C 397.496,701.586 398.329,701.252 399,700.5C 406.808,705.866 415.308,711.033 424.5,716C 425.337,717.011 425.67,718.178 425.5,719.5 Z"/></g>
<g><path style="opacity:0.698" fill="#5c5e61" d="M 707.5,612.5 C 708.499,653.33 708.832,694.33 708.5,735.5C 709.675,735.281 710.675,735.614 711.5,736.5C 710.754,737.736 710.421,739.07 710.5,740.5C 709.442,739.4 708.608,738.066 708,736.5C 707.5,695.168 707.333,653.835 707.5,612.5 Z"/></g>
<g><path style="opacity:1" fill="#6c6e71" d="M 737.5,746.5 C 731.612,749.751 725.612,750.084 719.5,747.5C 725.523,747.498 731.523,747.165 737.5,746.5 Z"/></g>
<g><path style="opacity:1" fill="#181514" d="M 180.5,1155.5 C 161.833,1155.5 143.167,1155.5 124.5,1155.5C 103.479,1153.07 83.4787,1146.9 64.5,1137C 59.2283,1134.21 54.5616,1130.71 50.5,1126.5C 50.0269,1125.09 49.0269,1124.43 47.5,1124.5C 24.5302,1103.91 10.3635,1078.24 5,1047.5C 2.74462,1035.75 0.911283,1024.09 -0.5,1012.5C -0.5,995.167 -0.5,977.833 -0.5,960.5C 1.29533,934.039 7.12867,908.372 17,883.5C 19.6874,877.448 22.8541,871.781 26.5,866.5C 27.9063,866.027 28.573,865.027 28.5,863.5C 29.9063,863.027 30.573,862.027 30.5,860.5C 33.4347,855.235 37.1014,850.568 41.5,846.5C 43.5,846.5 44.5,845.5 44.5,843.5C 67.1592,823.32 93.8259,812.153 124.5,810C 156.313,807.382 187.646,810.048 218.5,818C 225.694,819.837 232.194,823.004 238,827.5C 234.652,846.235 230.652,864.902 226,883.5C 224.136,886.207 221.636,887.041 218.5,886C 198.871,879.525 178.704,876.358 158,876.5C 108.122,876.38 80.122,901.047 74,950.5C 70.6669,972.831 70.6669,995.165 74,1017.5C 80.7724,1072.48 111.606,1095.98 166.5,1088C 170.872,1087.58 175.205,1086.91 179.5,1086C 180.494,1064.58 180.827,1043.08 180.5,1021.5C 166.496,1021.67 152.496,1021.5 138.5,1021C 136.671,1020.73 135.171,1019.89 134,1018.5C 133.174,998.593 133.341,978.76 134.5,959C 172.416,957.346 210.416,957.013 248.5,958C 249.333,958.833 250.167,959.667 251,960.5C 251.829,1017.21 251.662,1073.87 250.5,1130.5C 240.929,1137.09 230.596,1142.25 219.5,1146C 206.603,1150.14 193.603,1153.31 180.5,1155.5 Z"/></g>
<g><path style="opacity:1" fill="#181514" d="M 635.5,826.5 C 635.5,865.833 635.5,905.167 635.5,944.5C 667.167,944.5 698.833,944.5 730.5,944.5C 730.5,904.833 730.5,865.167 730.5,825.5C 730.574,823.589 731.574,822.422 733.5,822C 754.833,821.333 776.167,821.333 797.5,822C 799.333,822.5 800.5,823.667 801,825.5C 801.667,932.167 801.667,1038.83 801,1145.5C 800.167,1147.67 798.667,1149.17 796.5,1150C 775.427,1150.82 754.427,1150.65 733.5,1149.5C 733.027,1148.09 732.027,1147.43 730.5,1147.5C 730.5,1147.17 730.5,1146.83 730.5,1146.5C 730.5,1100.5 730.5,1054.5 730.5,1008.5C 698.833,1008.5 667.167,1008.5 635.5,1008.5C 635.5,1054.17 635.5,1099.83 635.5,1145.5C 635.084,1147.75 633.751,1149.25 631.5,1150C 610.427,1150.82 589.427,1150.65 568.5,1149.5C 568.027,1148.09 567.027,1147.43 565.5,1147.5C 564.336,1040.24 564.169,932.903 565,825.5C 565.5,823.667 566.667,822.5 568.5,822C 589.833,821.333 611.167,821.333 632.5,822C 634.863,822.589 635.863,824.089 635.5,826.5 Z"/></g>
<g><path style="opacity:1" fill="#181615" d="M 1137.5,825.5 C 1137.17,861.839 1137.5,898.173 1138.5,934.5C 1139.11,934.376 1139.44,934.043 1139.5,933.5C 1170.49,916.977 1202.49,914.81 1235.5,927C 1255.66,938.099 1268.49,954.932 1274,977.5C 1276.28,985.877 1278.11,994.21 1279.5,1002.5C 1279.5,1023.17 1279.5,1043.83 1279.5,1064.5C 1277.86,1077.95 1275.03,1091.28 1271,1104.5C 1261.54,1133.79 1241.71,1150.79 1211.5,1155.5C 1199.17,1155.5 1186.83,1155.5 1174.5,1155.5C 1155.27,1152.55 1137.94,1145.22 1122.5,1133.5C 1122.44,1132.96 1122.11,1132.62 1121.5,1132.5C 1120.53,1134.4 1120.2,1136.4 1120.5,1138.5C 1120.65,1141.61 1120.15,1144.61 1119,1147.5C 1117.83,1148.89 1116.33,1149.73 1114.5,1150C 1100.17,1150.67 1085.83,1150.67 1071.5,1150C 1069.33,1149.17 1067.83,1147.67 1067,1145.5C 1066.33,1038.83 1066.33,932.167 1067,825.5C 1067.5,823.667 1068.67,822.5 1070.5,822C 1091.83,821.333 1113.17,821.333 1134.5,822C 1136.43,822.422 1137.43,823.589 1137.5,825.5 Z M 1166.5,977.5 C 1184.88,974.766 1197.71,981.766 1205,998.5C 1206.84,1004.38 1208.18,1010.38 1209,1016.5C 1209.67,1030.5 1209.67,1044.5 1209,1058.5C 1208.74,1070.21 1205.41,1080.87 1199,1090.5C 1195.24,1094.13 1190.74,1096.3 1185.5,1097C 1168.68,1099.44 1152.85,1096.6 1138,1088.5C 1137.33,1054.83 1137.33,1021.17 1138,987.5C 1147.01,982.443 1156.51,979.11 1166.5,977.5 Z"/></g>
<g><path style="opacity:0.365" fill="#91908f" d="M 1137.5,825.5 C 1138.17,861.5 1138.83,897.5 1139.5,933.5C 1139.44,934.043 1139.11,934.376 1138.5,934.5C 1137.5,898.173 1137.17,861.839 1137.5,825.5 Z"/></g>
<g><path style="opacity:1" fill="#191716" d="M 318.5,828.5 C 348.419,831.25 362.252,847.583 360,877.5C 353.167,899.987 338,910.154 314.5,908C 293.996,902.848 282.996,889.681 281.5,868.5C 284.254,846.086 296.587,832.753 318.5,828.5 Z"/></g>
<g><path style="opacity:1" fill="#767474" d="M 44.5,843.5 C 44.5,845.5 43.5,846.5 41.5,846.5C 42.1667,845.167 43.1667,844.167 44.5,843.5 Z"/></g>
<g><path style="opacity:0.541" fill="#787777" d="M 30.5,860.5 C 30.573,862.027 29.9063,863.027 28.5,863.5C 28.427,861.973 29.0937,860.973 30.5,860.5 Z"/></g>
<g><path style="opacity:1" fill="#171413" d="M 484.5,864.5 C 484.5,885.167 484.5,905.833 484.5,926.5C 500.5,926.5 516.5,926.5 532.5,926.5C 533.458,926.953 534.292,927.619 535,928.5C 535.667,946.5 535.667,964.5 535,982.5C 534.292,983.381 533.458,984.047 532.5,984.5C 516.5,984.5 500.5,984.5 484.5,984.5C 484.168,1016.34 484.502,1048 485.5,1079.5C 488.157,1089.7 494.823,1095.53 505.5,1097C 513.686,1097.72 521.853,1097.55 530,1096.5C 532.667,1096.17 534.667,1097.17 536,1099.5C 536.667,1115.5 536.667,1131.5 536,1147.5C 535.167,1148.33 534.333,1149.17 533.5,1150C 525.741,1152.02 518.075,1153.86 510.5,1155.5C 499.833,1155.5 489.167,1155.5 478.5,1155.5C 436.026,1149.34 415.026,1124.68 415.5,1081.5C 415.5,1049.17 415.5,1016.83 415.5,984.5C 404.167,984.5 392.833,984.5 381.5,984.5C 380.25,984.423 379.417,983.756 379,982.5C 378.183,967.455 378.35,952.455 379.5,937.5C 390.455,933.261 401.788,930.261 413.5,928.5C 415.489,907.86 416.155,886.86 415.5,865.5C 415.414,864.504 415.748,863.671 416.5,863C 427.833,862.833 439.167,862.667 450.5,862.5C 462.187,862.501 473.52,863.168 484.5,864.5 Z"/></g>
<g><path style="opacity:0.522" fill="#7b7a79" d="M 28.5,863.5 C 28.573,865.027 27.9063,866.027 26.5,866.5C 26.427,864.973 27.0937,863.973 28.5,863.5 Z"/></g>
<g><path style="opacity:0.039" fill="#e0dfdf" d="M 415.5,865.5 C 416.155,886.86 415.489,907.86 413.5,928.5C 414.156,907.402 414.823,886.402 415.5,865.5 Z"/></g>
<g><path style="opacity:0.38" fill="#9d9b9b" d="M 484.5,864.5 C 485.497,884.66 485.83,904.993 485.5,925.5C 501.342,925.17 517.009,925.504 532.5,926.5C 516.5,926.5 500.5,926.5 484.5,926.5C 484.5,905.833 484.5,885.167 484.5,864.5 Z"/></g>
<g><path style="opacity:0.999" fill="#171413" d="M 289.5,925.5 C 310.836,925.333 332.169,925.5 353.5,926C 354.333,926.833 355.167,927.667 356,928.5C 356.667,1000.83 356.667,1073.17 356,1145.5C 355.535,1146.93 354.701,1148.1 353.5,1149C 332.167,1149.67 310.833,1149.67 289.5,1149C 287.667,1148.5 286.5,1147.33 286,1145.5C 285.333,1073.17 285.333,1000.83 286,928.5C 287.145,927.364 288.312,926.364 289.5,925.5 Z"/></g>
<g><path style="opacity:0.998" fill="#171514" d="M 990.5,1149.5 C 990.027,1148.09 989.027,1147.43 987.5,1147.5C 986.735,1144.9 986.401,1142.24 986.5,1139.5C 986.785,1137.71 986.452,1136.05 985.5,1134.5C 984.893,1134.62 984.56,1134.96 984.5,1135.5C 968.239,1145.14 950.906,1151.81 932.5,1155.5C 918.5,1155.5 904.5,1155.5 890.5,1155.5C 855.06,1150.56 835.227,1130.23 831,1094.5C 830.333,1039.17 830.333,983.833 831,928.5C 831.5,928 832,927.5 832.5,927C 854.833,926.333 877.167,926.333 899.5,927C 900,927.5 900.5,928 901,928.5C 901.042,979.189 901.709,1029.86 903,1080.5C 906.629,1093.92 915.462,1099.59 929.5,1097.5C 942.207,1097.74 953.874,1094.41 964.5,1087.5C 965.008,1034.09 965.842,980.754 967,927.5C 989.667,926.167 1012.33,926.167 1035,927.5C 1036.66,1000.42 1036.99,1073.42 1036,1146.5C 1035.5,1148.33 1034.33,1149.5 1032.5,1150C 1018.33,1150.83 1004.33,1150.66 990.5,1149.5 Z"/></g>
<g><path style="opacity:0.09" fill="#cccbcb" d="M 730.5,825.5 C 730.5,865.167 730.5,904.833 730.5,944.5C 698.833,944.5 667.167,944.5 635.5,944.5C 635.5,905.167 635.5,865.833 635.5,826.5C 636.499,865.33 636.832,904.33 636.5,943.5C 667.5,943.5 698.5,943.5 729.5,943.5C 729.168,903.996 729.501,864.663 730.5,825.5 Z"/></g>
<g><path style="opacity:0.039" fill="#d3d3d2" d="M 381.5,984.5 C 392.833,984.5 404.167,984.5 415.5,984.5C 415.5,1016.83 415.5,1049.17 415.5,1081.5C 414.502,1049.67 414.168,1017.67 414.5,985.5C 403.321,985.828 392.321,985.495 381.5,984.5 Z"/></g>
<g><path style="opacity:0.235" fill="#a9a9a8" d="M 532.5,984.5 C 517.009,985.496 501.342,985.83 485.5,985.5C 485.5,1016.83 485.5,1048.17 485.5,1079.5C 484.502,1048 484.168,1016.34 484.5,984.5C 500.5,984.5 516.5,984.5 532.5,984.5 Z"/></g>
<g><path style="opacity:0.11" fill="#c3c2c2" d="M 730.5,1146.5 C 729.501,1101 729.168,1055.34 729.5,1009.5C 698.5,1009.5 667.5,1009.5 636.5,1009.5C 636.832,1055 636.499,1100.34 635.5,1145.5C 635.5,1099.83 635.5,1054.17 635.5,1008.5C 667.167,1008.5 698.833,1008.5 730.5,1008.5C 730.5,1054.5 730.5,1100.5 730.5,1146.5 Z"/></g>
<g><path style="opacity:1" fill="#7a7978" d="M 47.5,1124.5 C 49.0269,1124.43 50.0269,1125.09 50.5,1126.5C 48.9731,1126.57 47.9731,1125.91 47.5,1124.5 Z"/></g>
<g><path style="opacity:0.482" fill="#939292" d="M 1122.5,1133.5 C 1121.83,1135.17 1121.17,1136.83 1120.5,1138.5C 1120.2,1136.4 1120.53,1134.4 1121.5,1132.5C 1122.11,1132.62 1122.44,1132.96 1122.5,1133.5 Z"/></g>
<g><path style="opacity:1" fill="#959393" d="M 984.5,1135.5 C 984.56,1134.96 984.893,1134.62 985.5,1134.5C 986.452,1136.05 986.785,1137.71 986.5,1139.5C 985.833,1138.17 985.167,1136.83 984.5,1135.5 Z"/></g>
<g><path style="opacity:1" fill="#7a7877" d="M 987.5,1147.5 C 989.027,1147.43 990.027,1148.09 990.5,1149.5C 988.973,1149.57 987.973,1148.91 987.5,1147.5 Z"/></g>
<g><path style="opacity:0.494" fill="#878686" d="M 565.5,1147.5 C 567.027,1147.43 568.027,1148.09 568.5,1149.5C 566.973,1149.57 565.973,1148.91 565.5,1147.5 Z"/></g>
<g><path style="opacity:0.541" fill="#7b7a79" d="M 730.5,1147.5 C 732.027,1147.43 733.027,1148.09 733.5,1149.5C 731.973,1149.57 730.973,1148.91 730.5,1147.5 Z"/></g>
</svg>
